<svg width="373" height="25" viewBox="0 0 373 25" fill="none" xmlns="http://www.w3.org/2000/svg">
    <path d="M202.813 11.173V23.7631H204.829V11.173H209.493V9.4337H198.148V11.173H202.813Z" fill="#333333"/>
    <path d="M212.333 14.7306V9.4337H210.535V23.7631H212.333V17.9918C212.333 15.7189 213.401 14.5132 215.14 14.5132C217.195 14.5132 217.472 15.9363 217.472 17.5768V23.7631H219.271V17.0431C219.271 14.6121 218.342 12.9518 215.772 12.9518C213.974 12.9518 212.946 13.7226 212.333 14.7306Z" fill="#333333"/>
    <path d="M223.167 19.0393H231.349C231.587 15.6793 229.63 12.9518 226.388 12.9518C223.483 12.9518 221.23 15.1062 221.23 18.4662C221.23 21.6088 223.088 24.0201 226.448 24.0201C229.037 24.0201 230.717 22.5179 231.211 20.6798H229.353C228.899 21.7273 228.029 22.4389 226.448 22.4389C224.867 22.4389 223.246 21.3321 223.167 19.0393ZM223.187 17.4977C223.345 15.3631 224.788 14.4935 226.388 14.4935C228.286 14.4935 229.412 15.9956 229.452 17.4977H223.187Z" fill="#333333"/>
    <path d="M238.413 9.4337V23.7631H248.137V22.0238H240.429V17.2605H247.682V15.5212H240.429V11.173H248.137V9.4337H238.413Z" fill="#333333"/>
    <path d="M250.964 10.4615V13.1297H249.284V14.5725H250.964V21.0949C250.964 23.3085 251.438 23.7631 253.474 23.7631H254.779V22.261H253.869C252.842 22.261 252.763 21.9843 252.763 20.8775V14.5725H254.779V13.1297H252.763V10.4615H250.964Z" fill="#333333"/>
    <path d="M258.869 14.7306V9.4337H257.071V23.7631H258.869V17.9918C258.869 15.7189 259.936 14.5132 261.676 14.5132C263.731 14.5132 264.008 15.9363 264.008 17.5768V23.7631H265.807V17.0431C265.807 14.6121 264.878 12.9518 262.308 12.9518C260.51 12.9518 259.482 13.7226 258.869 14.7306Z" fill="#333333"/>
    <path d="M270.296 9.4337H268.497V11.6078H270.296V9.4337ZM270.296 13.1297H268.497V23.7631H270.296V13.1297Z" fill="#333333"/>
    <path d="M282.003 16.6873C281.766 14.8888 280.126 12.9518 277.556 12.9518C274.414 12.9518 272.417 15.3038 272.417 18.4662C272.417 21.7076 274.335 24.0201 277.378 24.0201C279.849 24.0201 281.766 22.3005 282.122 20.3043H280.264C280.007 21.4309 278.94 22.4389 277.438 22.4389C275.856 22.4389 274.374 21.1542 274.374 18.4464C274.374 15.7782 275.837 14.533 277.438 14.533C278.821 14.533 279.928 15.4224 280.185 16.6873H282.003Z" fill="#333333"/>
    <path d="M283.518 20.9565C283.518 22.9132 285.178 24.0201 287.175 24.0201C289.052 24.0201 290.159 23.3876 290.811 22.3005C290.831 22.933 290.89 23.3678 290.95 23.7631H292.768C292.57 22.7551 292.471 21.5297 292.491 19.7509L292.511 17.3001C292.531 14.3156 291.207 12.9123 288.281 12.9123C286.206 12.9123 284.19 14.197 284.012 16.4897H285.87C285.949 15.1852 286.819 14.3749 288.301 14.3749C289.625 14.3749 290.712 15.0271 290.712 16.9641V17.221C286.344 17.7151 283.518 18.4464 283.518 20.9565ZM290.851 18.6441V19.3161C290.851 21.8262 289.25 22.597 287.57 22.597C286.285 22.597 285.514 21.925 285.514 20.917C285.514 19.4544 287.59 18.9801 290.851 18.6441Z" fill="#333333"/>
    <path d="M296.99 23.7631V9.4337H295.191V23.7631H296.99Z" fill="#333333"/>
    <path d="M316.827 19.1975H314.87C314.415 21.0356 313.012 22.3203 310.739 22.3203C308.071 22.3203 306.173 20.1857 306.173 16.5688C306.173 12.853 308.15 10.8765 310.68 10.8765C312.972 10.8765 314.356 12.2205 314.791 13.9993H316.747C316.135 10.9358 313.743 9.17676 310.779 9.17676C306.727 9.17676 304.118 12.1217 304.118 16.5688C304.118 20.9368 306.509 24.0201 310.62 24.0201C313.723 24.0201 316.194 22.3598 316.827 19.1975Z" fill="#333333"/>
    <path d="M320.672 23.7631V9.4337H318.874V23.7631H320.672Z" fill="#333333"/>
    <path d="M333.032 18.4859C333.032 14.6318 330.404 12.9518 327.933 12.9518C325.462 12.9518 322.834 14.6318 322.834 18.4859C322.834 22.3401 325.462 24.0201 327.933 24.0201C330.404 24.0201 333.032 22.3401 333.032 18.4859ZM327.933 22.4389C326.312 22.4389 324.751 21.3123 324.751 18.4859C324.751 15.5805 326.312 14.533 327.933 14.533C329.554 14.533 331.115 15.6596 331.115 18.4859C331.115 21.2135 329.554 22.4389 327.933 22.4389Z" fill="#333333"/>
    <path d="M341.765 22.2412V23.7631H343.564V13.1297H341.765V18.9801C341.765 21.253 340.757 22.4586 339.058 22.4586C337.101 22.4586 336.824 21.0356 336.824 19.3951V13.1297H335.026V19.9288C335.026 22.3598 335.954 24.0201 338.425 24.0201C340.184 24.0201 341.153 23.2492 341.765 22.2412Z" fill="#333333"/>
    <path d="M353.71 9.4337V14.8097C353.058 13.6831 351.931 12.9518 350.232 12.9518C347.801 12.9518 345.686 14.9876 345.686 18.4859C345.686 22.0041 347.801 24.0201 350.232 24.0201C351.931 24.0201 353.058 23.2888 353.71 22.1622V23.7631H355.509V9.4337H353.71ZM350.686 14.4935C352.287 14.4935 353.789 15.6793 353.789 18.4859C353.789 21.2925 352.287 22.4784 350.686 22.4784C348.848 22.4784 347.643 21.0158 347.643 18.4859C347.643 15.9561 348.848 14.4935 350.686 14.4935Z" fill="#333333"/>
    <rect x="359.797" y="2.11816" width="12.7059" height="12.7059" fill="#D52B1E"/>
    <path fill-rule="evenodd" clip-rule="evenodd" d="M367.418 4.65918H364.877V7.20008H362.336V9.74126H364.877V12.2827H367.418V9.74126H369.959V7.20008H367.418V4.65918Z" fill="white"/>
    <path d="M6.96866 4.78418V0.396025H0.5V4.78418H6.96866ZM6.96866 23.6198V6.79606H0.5V23.6198H6.96866ZM17.1451 23.6198V15.5406C17.1451 14.0093 17.3887 12.9479 17.8762 12.3564C18.3636 11.765 18.9993 11.4693 19.7834 11.4693C20.4933 11.4693 21.0443 11.6885 21.4363 12.1268C21.8284 12.565 22.0244 13.3122 22.0244 14.3683V23.6198H28.5248V12.9267C28.5248 10.7089 28.0189 9.0693 27.007 8.00791C25.9951 6.94653 24.5938 6.41584 22.8032 6.41584C21.4787 6.41584 20.3555 6.65611 19.4337 7.13663C18.5119 7.61716 17.6007 8.41718 16.7001 9.53665V6.79606H10.6764V23.6198H17.1451ZM39.1621 23.6198V11.5168H42.2455V6.79606H39.1621C39.1621 6.04622 39.1886 5.55511 39.2416 5.32277C39.3475 4.90033 39.5277 4.59142 39.782 4.39604C40.0363 4.20066 40.4548 4.10298 41.0376 4.10298C41.5144 4.10298 42.1395 4.16634 42.913 4.29307L43.6282 0.396025C41.4667 0.131999 39.8191 0 38.6853 0C37.2655 0 36.1874 0.161071 35.451 0.483183C34.7146 0.805296 34.1424 1.22772 33.7345 1.75049C33.3266 2.27326 33.0484 2.94653 32.9001 3.77029C32.7517 4.59406 32.6776 5.34916 32.6776 6.03563V6.79606H30.2617V11.5168H32.6776V23.6198H39.1621ZM52.5172 24C55.5582 24 57.9395 23.1736 59.6613 21.5208C61.3831 19.868 62.244 17.7479 62.244 15.1604C62.244 12.8581 61.55 10.9201 60.162 9.34652C58.4349 7.39273 55.8813 6.41584 52.5013 6.41584C49.5451 6.41584 47.1982 7.24754 45.4605 8.9109C43.7228 10.5743 42.854 12.6891 42.854 15.2554C42.854 18.0119 43.8817 20.2403 45.9373 21.9406C47.6114 23.3135 49.8047 24 52.5172 24ZM52.549 19.6436C51.6272 19.6436 50.8616 19.2845 50.2524 18.5663C49.6431 17.8482 49.3385 16.7393 49.3385 15.2396C49.3385 13.761 49.6458 12.6601 50.2604 11.9366C50.8749 11.2132 51.6537 10.8515 52.5967 10.8515C53.4867 10.8515 54.2337 11.2079 54.8377 11.9208C55.4416 12.6337 55.7436 13.7188 55.7436 15.1763C55.7436 16.7393 55.4443 17.8746 54.8456 18.5822C54.247 19.2898 53.4814 19.6436 52.549 19.6436ZM71.4669 23.6198V15.0337C71.4669 13.7558 71.7052 12.837 72.182 12.2772C72.6588 11.7175 73.2681 11.4376 74.0098 11.4376C74.4654 11.4376 74.8628 11.567 75.2018 11.8257C75.5409 12.0845 75.7793 12.4251 75.917 12.8475C76.0018 13.1116 76.0442 13.6132 76.0442 14.3525V23.6198H82.5287V14.9386C82.5287 13.7241 82.7618 12.8422 83.228 12.2931C83.6943 11.7439 84.3088 11.4693 85.0717 11.4693C85.718 11.4693 86.2584 11.7597 86.6928 12.3406C86.9895 12.7102 87.1378 13.2753 87.1378 14.0357V23.6198H93.6224V13.0535C93.6224 10.7723 93.1138 9.09572 92.0966 8.02377C91.0794 6.95182 89.6649 6.41584 87.853 6.41584C86.6239 6.41584 85.5909 6.61384 84.7538 7.00988C83.9167 7.40592 82.9896 8.15313 81.9725 9.25148C81.4745 8.31155 80.8334 7.60395 80.0493 7.12871C79.2653 6.65346 78.2004 6.41584 76.8547 6.41584C75.6044 6.41584 74.5369 6.63233 73.6522 7.06533C72.7674 7.49833 71.8906 8.22706 71.0218 9.25148V6.79606H64.9823V23.6198H71.4669ZM102.416 24C103.931 24 105.261 23.7676 106.405 23.303C107.242 22.9544 108.085 22.3736 108.932 21.5604C109.007 22.0462 109.081 22.4026 109.155 22.6297C109.229 22.8567 109.388 23.1868 109.632 23.6198H115.703C115.364 22.9228 115.144 22.3499 115.043 21.901C114.943 21.4522 114.892 20.8317 114.892 20.0396V12.6099C114.892 11.8178 114.734 10.9861 114.416 10.1148C114.098 9.24355 113.663 8.57028 113.112 8.09503C112.328 7.40856 111.348 6.95711 110.172 6.74061C108.996 6.52411 107.438 6.41584 105.499 6.41584C104.291 6.41584 103.168 6.50562 102.13 6.68516C101.092 6.8647 100.276 7.11815 99.6823 7.44554C98.8559 7.89967 98.2228 8.43565 97.7831 9.05347C97.3434 9.67129 97.0069 10.5188 96.7738 11.596L102.956 12.2455C103.211 11.5168 103.544 11.0205 103.958 10.7564C104.487 10.4185 105.282 10.2495 106.342 10.2495C107.168 10.2495 107.746 10.4079 108.074 10.7248C108.403 11.0416 108.567 11.596 108.567 12.3881C107.762 12.7049 106.999 12.9611 106.278 13.1565C105.558 13.3518 103.984 13.6924 101.558 14.1782C99.534 14.5795 98.146 15.1921 97.3937 16.0158C96.6414 16.8396 96.2653 17.8904 96.2653 19.1683C96.2653 20.5307 96.7871 21.6766 97.8308 22.6059C98.8744 23.5353 100.403 24 102.416 24ZM104.848 20.4198C104.159 20.4198 103.637 20.2588 103.282 19.9367C102.927 19.6145 102.75 19.2 102.75 18.6931C102.75 18.2495 102.93 17.8535 103.29 17.505C103.64 17.167 104.472 16.8237 105.785 16.4752C106.75 16.2323 107.677 15.9525 108.567 15.6357V16.6654C108.567 17.468 108.437 18.1201 108.177 18.6218C107.918 19.1234 107.478 19.5485 106.858 19.897C106.238 20.2455 105.568 20.4198 104.848 20.4198ZM124.815 23.6198V15.5406C124.815 14.0093 125.058 12.9479 125.546 12.3564C126.033 11.765 126.669 11.4693 127.453 11.4693C128.163 11.4693 128.714 11.6885 129.106 12.1268C129.498 12.565 129.694 13.3122 129.694 14.3683V23.6198H136.194V12.9267C136.194 10.7089 135.688 9.0693 134.676 8.00791C133.665 6.94653 132.263 6.41584 130.473 6.41584C129.148 6.41584 128.025 6.65611 127.103 7.13663C126.181 7.61716 125.27 8.41718 124.37 9.53665V6.79606H118.346V23.6198H124.815ZM146.339 4.78418V0.396025H139.87V4.78418H146.339ZM146.339 23.6198V6.79606H139.87V23.6198H146.339ZM155.403 24C156.918 24 158.248 23.7676 159.392 23.303C160.229 22.9544 161.071 22.3736 161.919 21.5604C161.993 22.0462 162.067 22.4026 162.142 22.6297C162.216 22.8567 162.375 23.1868 162.618 23.6198H168.69C168.351 22.9228 168.131 22.3499 168.03 21.901C167.929 21.4522 167.879 20.8317 167.879 20.0396V12.6099C167.879 11.8178 167.72 10.9861 167.402 10.1148C167.085 9.24355 166.65 8.57028 166.099 8.09503C165.315 7.40856 164.335 6.95711 163.159 6.74061C161.983 6.52411 160.425 6.41584 158.486 6.41584C157.278 6.41584 156.155 6.50562 155.117 6.68516C154.078 6.8647 153.262 7.11815 152.669 7.44554C151.843 7.89967 151.21 8.43565 150.77 9.05347C150.33 9.67129 149.994 10.5188 149.761 11.596L155.943 12.2455C156.197 11.5168 156.531 11.0205 156.944 10.7564C157.474 10.4185 158.269 10.2495 159.328 10.2495C160.155 10.2495 160.732 10.4079 161.061 10.7248C161.389 11.0416 161.554 11.596 161.554 12.3881C160.748 12.7049 159.985 12.9611 159.265 13.1565C158.544 13.3518 156.971 13.6924 154.545 14.1782C152.521 14.5795 151.133 15.1921 150.38 16.0158C149.628 16.8396 149.252 17.8904 149.252 19.1683C149.252 20.5307 149.774 21.6766 150.818 22.6059C151.861 23.5353 153.39 24 155.403 24ZM157.834 20.4198C157.146 20.4198 156.624 20.2588 156.269 19.9367C155.914 19.6145 155.737 19.2 155.737 18.6931C155.737 18.2495 155.917 17.8535 156.277 17.505C156.627 17.167 157.458 16.8237 158.772 16.4752C159.736 16.2323 160.664 15.9525 161.554 15.6357V16.6654C161.554 17.468 161.424 18.1201 161.164 18.6218C160.905 19.1234 160.465 19.5485 159.845 19.897C159.225 20.2455 158.555 20.4198 157.834 20.4198ZM177.944 23.6198V19.2475L180.376 16.8713L183.793 23.6198H191.088L184.683 12.6891L190.739 6.79606H182.776L177.944 12.3723V0.396025H171.333V23.6198H177.944Z" fill="#0098FF"/>
</svg>
