<svg width="60" height="60" viewBox="0 0 60 60" fill="none" xmlns="http://www.w3.org/2000/svg">
    <rect x="2.5" y="17.625" width="33" height="41.25" rx="1.375" fill="#176161"/>
    <rect x="13.5" y="9.375" width="33" height="41.25" rx="2.55" fill="url(#paint0_linear_593_28167)"/>
    <rect x="24.8563" y="1.48133" width="32.2873" height="40.5373" rx="0.950217" fill="white" stroke="#176161" stroke-width="0.712662" stroke-dasharray="3.27 3.27"/>
    <path fill-rule="evenodd" clip-rule="evenodd" d="M32 22C32 17.0294 36.0294 13 41 13C45.9706 13 50 17.0294 50 22C50 26.9706 45.9706 31 41 31C36.0294 31 32 26.9706 32 22ZM41 14.1939C36.6888 14.1939 33.1939 17.6888 33.1939 22C33.1939 26.3112 36.6888 29.8061 41 29.8061C45.3112 29.8061 48.8061 26.3112 48.8061 22C48.8061 17.6888 45.3112 14.1939 41 14.1939Z" fill="#176161"/>
    <path fill-rule="evenodd" clip-rule="evenodd" d="M41.0013 18.5103C40.5701 18.5103 40.0536 18.7156 39.715 19.122C39.3983 19.502 39.2564 20.0676 39.2564 20.347C39.2564 20.6767 38.9891 20.944 38.6594 20.944C38.3298 20.944 38.0625 20.6767 38.0625 20.347C38.0625 19.8305 38.2771 18.9826 38.7978 18.3577C39.3775 17.6621 40.2386 17.3164 41.0013 17.3164C41.7497 17.3164 42.6016 17.6461 43.144 18.2487C43.614 18.771 43.9401 19.3205 43.9401 20.1174C43.9401 20.7865 43.8347 21.4321 43.3667 22.0757C43.0058 22.5719 42.6379 22.7872 42.3218 22.9396C42.2742 22.9626 42.2311 22.9829 42.1919 23.0015C41.975 23.1042 41.8764 23.1509 41.7644 23.2741C41.667 23.3812 41.6202 23.5009 41.6006 23.6857C41.5849 23.8335 41.5884 23.9678 41.5929 24.142C41.5954 24.2391 41.5982 24.3486 41.5982 24.4797C41.5982 24.8094 41.331 25.0766 41.0013 25.0766C40.6716 25.0766 40.4043 24.8094 40.4043 24.4797C40.4043 24.4175 40.4026 24.3446 40.4007 24.2652C40.3956 24.0498 40.3893 23.7866 40.4134 23.5597C40.4512 23.2039 40.5652 22.8184 40.881 22.471C41.1653 22.1582 41.4923 22.0078 41.7122 21.9067C41.7452 21.8915 41.7757 21.8775 41.8034 21.8641C42.0112 21.764 42.1943 21.6579 42.4012 21.3735C42.6678 21.0068 42.7462 20.6422 42.7462 20.1174C42.7462 19.7204 42.613 19.4435 42.2566 19.0474C41.9633 18.7215 41.4467 18.5103 41.0013 18.5103ZM41.0013 26.2246C41.331 26.2246 41.5982 26.4918 41.5982 26.8215V26.9133C41.5982 27.243 41.331 27.5103 41.0013 27.5103C40.6716 27.5103 40.4043 27.243 40.4043 26.9133V26.8215C40.4043 26.4918 40.6716 26.2246 41.0013 26.2246Z" fill="#176161"/>
    <defs>
        <linearGradient id="paint0_linear_593_28167" x1="36.5775" y1="19.0158" x2="6.2605" y2="42.7527" gradientUnits="userSpaceOnUse">
            <stop stop-color="#F7F8FE"/>
            <stop offset="1" stop-color="#51D3DC"/>
        </linearGradient>
    </defs>
</svg>
