<svg width="61" height="60" viewBox="0 0 61 60" fill="none" xmlns="http://www.w3.org/2000/svg">
    <path fill-rule="evenodd" clip-rule="evenodd" d="M43.6816 37.5809C42.426 37.5809 41.4236 36.5454 41.4074 35.2899C41.3738 32.6928 41.1457 30.1072 40.5579 28.0477C38.8958 22.2234 33.5254 17.6915 31.6219 16.2322C31.2185 15.9229 30.6718 15.9229 30.2685 16.2322C28.3649 17.6915 22.9946 22.2234 21.3324 28.0477C20.7849 29.9662 20.5494 32.3412 20.4926 34.7568C20.4574 36.2538 19.2044 37.4771 17.7406 37.1619C9.31485 35.3475 3 27.8543 3 18.8861C3 8.56133 11.3699 0.191406 21.6947 0.191406C29.3693 0.191406 35.9637 4.81588 38.8435 11.4303C39.5372 13.0235 41.4984 13.8568 43.1819 13.4261C44.1569 13.1767 45.1788 13.0441 46.2316 13.0441C53.0072 13.0441 58.5 18.5368 58.5 25.3125C58.5 32.0882 53.0072 37.5809 46.2316 37.5809C45.8373 37.5809 45.4474 37.5623 45.0626 37.5259C44.6736 37.4892 44.2812 37.5406 43.8917 37.5724C43.8224 37.578 43.7523 37.5809 43.6816 37.5809Z" fill="url(#paint0_linear_593_28137)"/>
    <path fill-rule="evenodd" clip-rule="evenodd" d="M30.3197 19.2066C28.8543 20.3361 24.8822 23.7191 23.6447 28.0553C22.8289 30.9141 22.9349 35.1219 23.1816 38.2416C23.2397 38.9771 22.9035 39.6901 22.2897 40.0994L19.4532 41.9904C18.4119 42.6846 18.2568 44.1538 19.1301 45.0502L24.5259 50.5879C25.152 51.2305 26.2421 50.7872 26.2421 49.89V44.4003C26.2421 43.2957 27.1375 42.4003 28.2421 42.4003H33.0342C34.1388 42.4003 35.0342 43.2957 35.0342 44.4003V49.89C35.0342 50.7872 36.1243 51.2305 36.7504 50.5879L42.1461 45.0502C43.0195 44.1538 42.8644 42.6846 41.8231 41.9904L39.4255 40.392C38.8091 39.9811 38.4728 39.264 38.5344 38.5258C38.7968 35.3815 38.9353 31.0019 38.0944 28.0553C36.8569 23.7191 32.8849 20.3361 31.4194 19.2066C31.0925 18.9546 30.6466 18.9546 30.3197 19.2066ZM30.8695 35.9218C32.1473 35.9218 33.1832 34.886 33.1832 33.6081C33.1832 32.3303 32.1473 31.2944 30.8695 31.2944C29.5917 31.2944 28.5558 32.3303 28.5558 33.6081C28.5558 34.886 29.5917 35.9218 30.8695 35.9218Z" fill="#006685"/>
    <path d="M17.5 40.5L5 56.25" stroke="#006685" stroke-width="0.75" stroke-dasharray="2.5 2.5"/>
    <circle cx="1.75263" cy="1.75263" r="1.75263" transform="matrix(-0.707107 0.707107 0.707107 0.707107 4.98047 54)" fill="url(#paint1_linear_593_28137)"/>
    <path d="M43.5 40.5L56 56.25" stroke="#006685" stroke-width="0.75" stroke-dasharray="2.5 2.5"/>
    <circle cx="56.0234" cy="56.4786" r="1.75263" transform="rotate(45 56.0234 56.4786)" fill="url(#paint2_linear_593_28137)"/>
    <path d="M31 54.5V44.5" stroke="#006685" stroke-width="0.75" stroke-dasharray="2.5 2.5"/>
    <circle cx="30.9766" cy="56.4786" r="1.75263" transform="rotate(45 30.9766 56.4786)" fill="url(#paint3_linear_593_28137)"/>
    <defs>
        <linearGradient id="paint0_linear_593_28137" x1="3" y1="0.191406" x2="61.8463" y2="82.9734" gradientUnits="userSpaceOnUse">
            <stop stop-color="#E7FAFE"/>
            <stop offset="1" stop-color="#0ECDF1"/>
        </linearGradient>
        <linearGradient id="paint1_linear_593_28137" x1="0" y1="0" x2="3.77515" y2="3.1854" gradientUnits="userSpaceOnUse">
            <stop stop-color="#E7FAFE"/>
            <stop offset="1" stop-color="#0ECDF1"/>
        </linearGradient>
        <linearGradient id="paint2_linear_593_28137" x1="54.2708" y1="54.726" x2="58.046" y2="57.9114" gradientUnits="userSpaceOnUse">
            <stop stop-color="#E7FAFE"/>
            <stop offset="1" stop-color="#0ECDF1"/>
        </linearGradient>
        <linearGradient id="paint3_linear_593_28137" x1="29.2239" y1="54.726" x2="32.9991" y2="57.9114" gradientUnits="userSpaceOnUse">
            <stop stop-color="#E7FAFE"/>
            <stop offset="1" stop-color="#0ECDF1"/>
        </linearGradient>
    </defs>
</svg>
